<svg xmlns="http://www.w3.org/2000/svg" width="500" height="500" style="width:100%;height:100%;transform:translate3d(0,0,0);content-visibility:visible" viewBox="0 0 500 500"><defs><filter id="a" width="100%" height="100%" x="0%" y="0%" filterUnits="objectBoundingBox"><feComponentTransfer in="SourceGraphic"><feFuncA tableValues="1.0 0.0" type="table"/></feComponentTransfer></filter><filter id="c" width="100%" height="100%" x="0%" y="0%" filterUnits="objectBoundingBox"><feComponentTransfer in="SourceGraphic"><feFuncA tableValues="1.0 0.0" type="table"/></feComponentTransfer></filter><path id="b" fill="red" d="M-1.94-157h3.88c33.734 0 60.747 27.969 59.574 61.682l-1.94 55.781C58.458-7.442 32.115 18 0 18c-32.115 0-58.458-25.442-59.574-57.537l-1.94-55.781C-62.687-129.031-35.674-157-1.94-157z" style="display:block" transform="translate(250 250)"/><path id="d" fill="#3A3347" d="M-57.091 46.053c39.08-1.63 70.28-25.94 84.83-60.1 32.787 23.36 31.026 43.821 36.956 63.531 14.38-19.646 11.561-58.746 1.497-74.171-8.376-12.838-23.666-17-23.666-17-21.792-5.284-44.082 2.543-55.135 7.502-4.592 2.06-9.924 1.553-14.02-1.37l-15.879-11.331c-5.933-4.428-14.349-3.052-18.564 3.033-5.394 7.786-10.722 19.446-12.819 33.416-4.935 32.876 16.907 56.378 16.907 56.378" style="display:block" transform="translate(251.141 139.687)"/><mask id="g" mask-type="alpha"><g filter="url(#a)"><path fill="#fff" d="M0 0h500v500H0z" opacity="0"/><use xmlns:ns1="http://www.w3.org/1999/xlink" ns1:href="#b"/></g></mask><mask id="f" mask-type="alpha"><g filter="url(#c)"><path fill="#fff" d="M0 0h500v500H0z" opacity="0"/><use xmlns:ns2="http://www.w3.org/1999/xlink" ns2:href="#d"/></g></mask><clipPath id="e"><path d="M0 0h500v500H0z"/></clipPath></defs><g clip-path="url(#e)"><g style="display:block"><path fill="none" d="M283.88 276.69h7.62c45.84 0 83 37.16 83 83v27.76c0 7.62-5.71 14.03-13.28 14.9l-29.04 3.36a85.26 85.26 0 0 0-23.07 6.03c-18.91 7.91-39 11.88-59.11 11.92h-.3c-20.1 0-40.2-3.93-59.12-11.8l-.2-.08c-7.69-3.2-15.79-5.3-24.07-6.26l-27.53-3.17c-7.57-.87-13.28-7.28-13.28-14.9v-27.76c0-45.84 37.16-83 83-83h7.63"/><path fill="#636D78" d="M283.88 276.69h7.62c45.84 0 83 37.16 83 83v27.76c0 7.62-5.71 14.03-13.28 14.9l-29.04 3.36a85.26 85.26 0 0 0-23.07 6.03c-18.91 7.91-39 11.88-59.11 11.92h-.3c-20.1 0-40.2-3.93-59.12-11.8l-.2-.08c-7.69-3.2-15.79-5.3-24.07-6.26l-27.53-3.17c-7.57-.87-13.28-7.28-13.28-14.9v-27.76c0-45.84 37.16-83 83-83h7.63"/></g><g opacity=".5" style="mix-blend-mode:multiply;display:block"><path fill="#636D78" d="M45.67-56.73C17.51-49.61-9.25-31.02-16.97-17.92c-9.48 16.09-7.43 81.21-7.43 81.21l-7.99-.92c-7.57-.87-13.28-7.28-13.28-14.9V19.71c0-34.31 20.81-63.75 50.5-76.4 9.98-4.25 20.97-6.6 32.5-6.6h7.63c.01 1.27.09 2.52.25 3.75.03.31.07.61.12.91a27.562 27.562 0 0 0 .34 1.9z" opacity="1" style="mix-blend-mode:multiply" transform="translate(171.138 340.549)"/></g><path fill="#F3C3B9" d="M33.87 7.845v18.94c0 18.63-15.25 33.87-33.88 33.87-18.63 0-33.87-15.24-33.87-33.87V7.855" style="display:block" transform="translate(250 250)"/><g opacity=".5" style="mix-blend-mode:multiply;display:block"><path fill="#F3C3B9" d="M33.875-12.905s-13.5 21.7-47.74 22.93c-6.36.23-12.87 1.25-19.3 2.88-.09-.43-.18-.87-.25-1.31-.03-.19-.06-.39-.09-.59-.05-.3-.09-.6-.12-.91-.16-1.23-.24-2.48-.25-3.75l.098-47.49c9.63 6.66 55.31-6.2 67.87-6.2-.315 9.463-.066 19.213-.218 34.44z" opacity="1" style="mix-blend-mode:multiply" transform="translate(249.973 270.914)"/></g><g style="display:block"><path fill="none" d="m269 98 42.898 24.868-2.324 87.595C308.458 242.558 282.115 268 250 268c-32.115 0-58.458-25.442-59.574-57.537l-1.07-40.125"/><path fill="#F3C3B9" d="m269 98 42.898 24.868-2.324 87.595C308.458 242.558 282.115 268 250 268c-32.115 0-58.458-25.442-59.574-57.537l-1.07-40.125"/></g><path fill="#AC6836" d="M-57.091 46.053c39.08-1.63 70.28-25.94 84.83-60.1 32.787 23.36 31.026 43.821 36.956 63.531 14.38-19.646 11.561-58.746 1.497-74.171-8.376-12.838-23.666-17-23.666-17-21.792-5.284-44.082 2.543-55.135 7.502-4.592 2.06-9.924 1.553-14.02-1.37l-15.879-11.331c-5.933-4.428-14.349-3.052-18.564 3.033-5.394 7.786-10.722 19.446-12.819 33.416-4.935 32.876 16.907 56.378 16.907 56.378" style="display:block" transform="translate(246.141 124.687)"/><g mask="url(#f)" opacity=".5" style="mix-blend-mode:multiply;display:block"><path fill="#AC6836" d="M189.05 170.74c39.08-1.63 70.28-25.94 84.83-60.1 32.787 23.36 31.026 43.821 36.956 63.531 14.38-19.646 11.561-58.746 1.497-74.171-8.376-12.838-23.666-17-23.666-17-21.792-5.284-44.082 2.543-55.135 7.502-4.592 2.06-9.924 1.553-14.02-1.37l-15.879-11.331c-5.933-4.428-14.349-3.052-18.564 3.033-5.394 7.786-10.722 19.446-12.819 33.416-4.935 32.876 16.907 56.378 16.907 56.378" opacity="1"/></g><path fill="none" stroke="#121330" stroke-linecap="round" stroke-linejoin="round" stroke-width="7" d="M11-16.211-11 0l22 16.211" style="display:block" transform="translate(248.328 361.267)"/><path fill="none" stroke="#121330" stroke-linecap="round" stroke-linejoin="round" stroke-width="7" d="M-11-16.211 11 0l-22 16.211" style="display:block" transform="translate(332.574 361.267)"/><path fill="none" stroke="#121330" stroke-linecap="round" stroke-linejoin="round" stroke-width="7" d="M5.252-16.211-5.252 16.211" style="display:block" transform="translate(290.209 361.267)"/><g mask="url(#g)" style="display:block"><path fill="none" stroke="#121330" stroke-linecap="round" stroke-linejoin="round" stroke-width="7" d="M283.87 257.845v18.94c0 18.63-15.25 33.87-33.88 33.87-18.63 0-33.87-15.24-33.87-33.87v-18.93"/></g><path fill="none" stroke="#121330" stroke-linecap="round" stroke-linejoin="round" stroke-width="7" d="M33.88 26.69h7.62c45.84 0 83 37.16 83 83v27.76c0 7.62-5.71 14.03-13.28 14.9l-29.04 3.36a85.26 85.26 0 0 0-23.07 6.03c-18.91 7.91-39 11.88-59.11 11.92h-.3c-20.1 0-40.2-3.93-59.12-11.8l-.2-.08c-7.69-3.2-15.79-5.3-24.07-6.26l-27.53-3.17c-7.57-.87-13.28-7.28-13.28-14.9v-27.76c0-45.84 37.16-83 83-83h7.63M60.898-76.632l-1.324 37.095C58.458-7.442 32.115 18 0 18c0 0 0 0 0 0-32.115 0-58.458-25.442-59.574-57.537l-1.07-40.125" style="display:block" transform="translate(250 250)"/><path fill="none" stroke="#121330" stroke-linecap="round" stroke-linejoin="round" stroke-width="7" d="M-57.091 46.053c39.08-1.63 70.28-25.94 84.83-60.1 32.787 23.36 31.026 43.821 36.956 63.531 14.38-19.646 11.561-58.746 1.497-74.171-8.376-12.838-23.666-17-23.666-17-21.792-5.284-44.082 2.543-55.135 7.502-4.592 2.06-9.924 1.553-14.02-1.37l-15.879-11.331c-5.933-4.428-14.349-3.052-18.564 3.033-5.394 7.786-10.722 19.446-12.819 33.416-4.935 32.876 16.907 56.378 16.907 56.378" style="display:block" transform="translate(246.141 124.687)"/><g style="display:block"><path fill="#4FADF8" d="M236.046 199H189.56v-28.948h46.486V199z"/><path fill="none" stroke="#121330" stroke-linecap="round" stroke-linejoin="round" stroke-width="7" d="M236.046 199H189.56v-28.948h46.486V199z"/></g><g style="display:block"><path fill="#4FADF8" d="M310.474 199h-46.486v-28.948h46.486V199z"/><path fill="none" stroke="#121330" stroke-linecap="round" stroke-linejoin="round" stroke-width="7" d="M310.474 199h-46.486v-28.948h46.486V199z"/></g><path fill="none" stroke="#121330" stroke-linecap="round" stroke-linejoin="round" stroke-width="7" d="M13.971 0h-27.942" style="display:block" transform="translate(250.017 181.526)"/><g class="com" style="display:none"><path/><path/><path/><path/><path/><path/><path/><path/><path/><path/><path/><path/></g></g></svg>